<svg xmlns="http://www.w3.org/2000/svg" xmlns:xlink="http://www.w3.org/1999/xlink" width="1080" zoomAndPan="magnify" viewBox="0 0 810 809.999993" height="1080" preserveAspectRatio="xMidYMid meet" version="1.0"><defs><clipPath id="bd95caba77"><path d="M 405 0 C 181.324219 0 0 181.324219 0 405 C 0 628.675781 181.324219 810 405 810 C 628.675781 810 810 628.675781 810 405 C 810 181.324219 628.675781 0 405 0 Z M 405 0 " clip-rule="nonzero"/></clipPath><clipPath id="564e1c2af9"><path d="M 172.875 218.332031 L 637.125 218.332031 L 637.125 591.832031 L 172.875 591.832031 Z M 172.875 218.332031 " clip-rule="nonzero"/></clipPath></defs><rect x="-81" width="972" fill="#ffffff" y="-80.999999" height="971.999992" fill-opacity="1"/><rect x="-81" width="972" fill="#b3b3b3" y="-80.999999" height="971.999992" fill-opacity="1"/><g clip-path="url(#bd95caba77)"><rect x="-81" width="972" fill="#b3b3b3" y="-80.999999" height="971.999992" fill-opacity="1"/></g><g clip-path="url(#564e1c2af9)"><path fill="#f2f2f2" d="M 404.996094 218.332031 C 368.882812 218.332031 332.574219 232.105469 305.042969 259.640625 C 284.566406 280.113281 272.152344 305.515625 266.890625 332.003906 C 213.460938 342.367188 172.929688 389.03125 172.929688 445.355469 C 172.929688 509.257812 225.058594 561.390625 288.960938 561.390625 L 344.457031 561.390625 C 345.457031 561.402344 346.453125 561.320312 347.4375 561.136719 C 348.425781 560.953125 349.382812 560.675781 350.316406 560.300781 C 351.246094 559.925781 352.132812 559.464844 352.96875 558.914062 C 353.808594 558.367188 354.585938 557.738281 355.300781 557.035156 C 356.015625 556.332031 356.652344 555.5625 357.214844 554.730469 C 357.777344 553.902344 358.253906 553.023438 358.640625 552.097656 C 359.027344 551.171875 359.320312 550.21875 359.515625 549.234375 C 359.714844 548.25 359.8125 547.257812 359.8125 546.253906 C 359.8125 545.25 359.714844 544.257812 359.515625 543.273438 C 359.320312 542.292969 359.027344 541.335938 358.640625 540.410156 C 358.253906 539.484375 357.777344 538.605469 357.214844 537.777344 C 356.652344 536.945312 356.015625 536.175781 355.300781 535.472656 C 354.585938 534.769531 353.808594 534.140625 352.96875 533.59375 C 352.132812 533.042969 351.246094 532.582031 350.316406 532.207031 C 349.382812 531.832031 348.425781 531.554688 347.4375 531.371094 C 346.453125 531.1875 345.457031 531.105469 344.457031 531.121094 L 288.960938 531.121094 C 241.417969 531.121094 203.199219 492.898438 203.199219 445.355469 C 203.199219 400.457031 237.34375 363.878906 281.078125 359.90625 C 281.929688 359.824219 282.769531 359.671875 283.59375 359.445312 C 284.417969 359.21875 285.21875 358.925781 285.996094 358.566406 C 286.769531 358.207031 287.507812 357.78125 288.214844 357.296875 C 288.917969 356.808594 289.574219 356.269531 290.1875 355.671875 C 290.796875 355.074219 291.355469 354.429688 291.859375 353.734375 C 292.359375 353.042969 292.800781 352.3125 293.179688 351.546875 C 293.558594 350.78125 293.871094 349.988281 294.117188 349.167969 C 294.359375 348.347656 294.535156 347.511719 294.636719 346.664062 C 297.421875 322.675781 308.035156 299.367188 326.484375 280.921875 C 348.203125 259.203125 376.550781 248.601562 404.996094 248.601562 C 433.4375 248.601562 461.605469 259.179688 483.347656 280.921875 C 508.472656 306.046875 519.105469 340.183594 515.195312 372.835938 C 515.128906 373.367188 515.089844 373.898438 515.078125 374.433594 C 515.070312 374.964844 515.085938 375.5 515.132812 376.03125 C 515.179688 376.566406 515.253906 377.09375 515.355469 377.617188 C 515.457031 378.144531 515.585938 378.660156 515.742188 379.171875 C 515.902344 379.683594 516.085938 380.183594 516.292969 380.675781 C 516.503906 381.167969 516.738281 381.644531 517 382.113281 C 517.261719 382.578125 517.546875 383.03125 517.855469 383.464844 C 518.164062 383.902344 518.496094 384.320312 518.847656 384.722656 C 519.199219 385.125 519.574219 385.503906 519.96875 385.867188 C 520.359375 386.230469 520.773438 386.570312 521.199219 386.886719 C 521.628906 387.207031 522.074219 387.5 522.535156 387.769531 C 522.996094 388.042969 523.46875 388.289062 523.957031 388.507812 C 524.445312 388.730469 524.941406 388.925781 525.449219 389.09375 C 525.957031 389.261719 526.46875 389.402344 526.992188 389.515625 C 527.515625 389.628906 528.042969 389.714844 528.574219 389.773438 C 529.105469 389.832031 529.636719 389.859375 530.171875 389.863281 L 536.164062 389.863281 C 575.550781 389.863281 606.792969 421.101562 606.792969 460.492188 C 606.792969 499.882812 575.550781 531.121094 536.164062 531.121094 L 465.535156 531.121094 C 464.53125 531.105469 463.535156 531.1875 462.550781 531.371094 C 461.5625 531.554688 460.605469 531.832031 459.671875 532.207031 C 458.742188 532.582031 457.859375 533.042969 457.019531 533.59375 C 456.179688 534.140625 455.402344 534.769531 454.6875 535.472656 C 453.972656 536.175781 453.335938 536.945312 452.773438 537.777344 C 452.210938 538.605469 451.738281 539.484375 451.347656 540.410156 C 450.960938 541.335938 450.667969 542.289062 450.472656 543.273438 C 450.273438 544.257812 450.175781 545.25 450.175781 546.253906 C 450.175781 547.257812 450.273438 548.25 450.472656 549.234375 C 450.667969 550.21875 450.960938 551.171875 451.347656 552.097656 C 451.738281 553.023438 452.210938 553.902344 452.773438 554.730469 C 453.335938 555.5625 453.972656 556.332031 454.6875 557.035156 C 455.402344 557.738281 456.179688 558.367188 457.019531 558.914062 C 457.859375 559.464844 458.742188 559.925781 459.671875 560.300781 C 460.605469 560.675781 461.5625 560.953125 462.550781 561.136719 C 463.535156 561.320312 464.53125 561.402344 465.535156 561.390625 L 536.164062 561.390625 C 591.796875 561.390625 637.0625 516.125 637.0625 460.492188 C 637.0625 407.980469 596.609375 365.238281 545.304688 360.539062 C 545.542969 324.015625 532.570312 287.421875 504.789062 259.640625 C 477.28125 232.128906 441.105469 218.332031 404.996094 218.332031 Z M 404.996094 379.769531 C 399.949219 379.769531 397.28125 381.394531 394.746094 383.710938 L 339.253906 434.160156 C 332.84375 440.109375 332.957031 449.761719 338.304688 455.601562 C 343.65625 461.445312 353.878906 461.867188 359.746094 456.546875 L 389.859375 429.117188 L 389.859375 576.523438 C 389.859375 584.882812 396.632812 591.65625 404.996094 591.65625 C 413.355469 591.65625 420.128906 584.882812 420.128906 576.523438 L 420.128906 429.117188 L 450.242188 456.546875 C 456.109375 461.867188 466.023438 461.148438 471.683594 455.601562 C 477.644531 449.761719 476.550781 439.539062 470.734375 434.160156 L 415.242188 383.710938 C 412.242188 380.96875 410.039062 379.769531 404.996094 379.769531 Z M 404.996094 379.769531 " fill-opacity="1" fill-rule="nonzero"/></g></svg>