<svg xmlns="http://www.w3.org/2000/svg" xmlns:xlink="http://www.w3.org/1999/xlink" width="1080" zoomAndPan="magnify" viewBox="0 0 810 809.999993" height="1080" preserveAspectRatio="xMidYMid meet" version="1.0"><rect x="-81" width="972" fill="#ffffff" y="-80.999999" height="971.999992" fill-opacity="1"/><rect x="-81" width="972" fill="#b3b3b3" y="-80.999999" height="971.999992" fill-opacity="1"/><path fill="#b3b3b3" d="M 810.035156 405.019531 C 810.035156 508.632812 771.15625 603.132812 707.128906 674.753906 C 632.976562 757.785156 525.113281 810.03125 405.023438 810.03125 C 284.9375 810.03125 177.035156 757.785156 102.917969 674.753906 C 38.894531 603.132812 0.0117188 508.632812 0.0117188 405.019531 C 0.0117188 181.347656 181.320312 0.0078125 405.023438 0.0078125 C 628.691406 0.0078125 810.035156 181.347656 810.035156 405.019531 " fill-opacity="1" fill-rule="nonzero"/><path fill="#f2f2f2" d="M 405.023438 479.621094 C 478.429688 479.621094 545.289062 396.574219 545.289062 305.382812 C 545.289062 219.222656 528.625 134.023438 405.023438 134.023438 C 281.410156 134.023438 264.738281 219.222656 264.738281 305.382812 C 264.738281 396.574219 331.605469 479.621094 405.023438 479.621094 " fill-opacity="1" fill-rule="nonzero"/><path fill="#f2f2f2" d="M 707.128906 674.753906 C 632.976562 757.785156 525.113281 810.03125 405.023438 810.03125 C 284.9375 810.03125 177.035156 757.785156 102.917969 674.753906 C 101.636719 624.734375 134.949219 508.835938 304.851562 473.160156 C 333.910156 502.824219 369.6875 519.601562 405.023438 519.601562 C 440.359375 519.601562 476.105469 502.824219 505.164062 473.160156 C 675.101562 508.835938 708.378906 624.734375 707.128906 674.753906 " fill-opacity="1" fill-rule="nonzero"/></svg>